<svg xmlns="http://www.w3.org/2000/svg" id="divide" width="13.575" height="13.575" viewBox="0 0 13.575 13.575"><path id="Path_799" fill="#8890b5" d="M117.756,129.738a.424.424,0,0,1-.424-.424v-6.222a.424.424,0,0,1,.848,0v6.222A.424.424,0,0,1,117.756,129.738Zm0,0" data-name="Path 799" transform="translate(-114.221 -119.416)"/><path id="Path_800" fill="#8890b5" d="M363.092,129.738a.424.424,0,0,1-.424-.424v-6.222a.424.424,0,1,1,.848,0v6.222A.424.424,0,0,1,363.092,129.738Zm0,0" data-name="Path 800" transform="translate(-353.052 -119.416)"/><path id="Path_801" fill="#8890b5" d="M240.424,13.575a.424.424,0,0,1-.424-.424V.424a.424.424,0,0,1,.848,0V13.151A.424.424,0,0,1,240.424,13.575Zm0,0" data-name="Path 801" transform="translate(-233.637)"/><path id="Path_802" fill="#8890b5" d="M12.02,13.575H1.556A1.557,1.557,0,0,1,0,12.02V1.556A1.557,1.557,0,0,1,1.556,0H12.02a1.557,1.557,0,0,1,1.556,1.556V12.02A1.557,1.557,0,0,1,12.02,13.575ZM1.556.848a.708.708,0,0,0-.707.707V12.02a.708.708,0,0,0,.707.707H12.02a.708.708,0,0,0,.707-.707V1.556A.708.708,0,0,0,12.02.848Zm0,0" data-name="Path 802"/><path id="Path_803" fill="#8890b5" d="M13.151,363.516H.424a.424.424,0,0,1,0-.848H13.151a.424.424,0,0,1,0,.848Zm0,0" data-name="Path 803" transform="translate(0 -353.052)"/><path id="Path_804" fill="#8890b5" d="M13.151,118.18H.424a.424.424,0,0,1,0-.848H13.151a.424.424,0,0,1,0,.848Zm0,0" data-name="Path 804" transform="translate(0 -114.221)"/></svg>